<svg width="104" height="46" viewBox="0 0 104 46" fill="none" xmlns="http://www.w3.org/2000/svg">
<rect x="46" y="46" width="46" height="46" rx="23" transform="rotate(-180 46 46)" fill="#F2F3F4"/>
<path fill-rule="evenodd" clip-rule="evenodd" d="M31 23C31 23.5523 30.5523 24 30 24L16 24C15.4477 24 15 23.5523 15 23C15 22.4477 15.4477 22 16 22L30 22C30.5523 22 31 22.4477 31 23Z" fill="#253D4E"/>
<path fill-rule="evenodd" clip-rule="evenodd" d="M23.7071 30.7071C23.3166 31.0976 22.6834 31.0976 22.2929 30.7071L15.2929 23.7071C14.9024 23.3166 14.9024 22.6834 15.2929 22.2929L22.2929 15.2929C22.6834 14.9024 23.3166 14.9024 23.7071 15.2929C24.0976 15.6834 24.0976 16.3166 23.7071 16.7071L17.4142 23L23.7071 29.2929C24.0976 29.6834 24.0976 30.3166 23.7071 30.7071Z" fill="#253D4E"/>
<rect x="58" width="46" height="46" rx="23" fill="#F2F3F4"/>
<path fill-rule="evenodd" clip-rule="evenodd" d="M73 23C73 22.4477 73.4477 22 74 22H88C88.5523 22 89 22.4477 89 23C89 23.5523 88.5523 24 88 24H74C73.4477 24 73 23.5523 73 23Z" fill="#253D4E"/>
<path fill-rule="evenodd" clip-rule="evenodd" d="M80.2929 15.2929C80.6834 14.9024 81.3166 14.9024 81.7071 15.2929L88.7071 22.2929C89.0976 22.6834 89.0976 23.3166 88.7071 23.7071L81.7071 30.7071C81.3166 31.0976 80.6834 31.0976 80.2929 30.7071C79.9024 30.3166 79.9024 29.6834 80.2929 29.2929L86.5858 23L80.2929 16.7071C79.9024 16.3166 79.9024 15.6834 80.2929 15.2929Z" fill="#253D4E"/>
</svg>
