<svg width="39" height="40" viewBox="0 0 39 40" fill="none" xmlns="http://www.w3.org/2000/svg">
<path d="M13.2844 21.1273C12.6369 21.3787 11.9057 21.1045 11.5857 20.4875L5.64433 9.04647C4.95117 7.69061 5.47675 6.03768 6.83261 5.34452C6.9164 5.30643 6.99257 5.26834 7.07636 5.23026C8.60742 4.61327 10.2908 5.51209 10.7174 7.066L10.725 7.08885L14.0994 19.5125C14.2746 20.1752 13.9242 20.876 13.2844 21.1273Z" fill="#F98500"/>
<path d="M12.9645 15.3611L11.2811 16.0238C10.9688 16.1381 10.6184 15.9857 10.4889 15.6734C10.367 15.3611 10.5193 15.0031 10.8316 14.8813L12.6369 14.1729L12.9645 15.3611Z" fill="#FA6D00"/>
<path d="M13.6195 17.7452L12.1723 18.286C11.86 18.3926 11.5172 18.2479 11.3801 17.9356C11.2582 17.6233 11.4105 17.2653 11.7305 17.1434L13.2996 16.5569L13.6195 17.7452Z" fill="#FA6D00"/>
<path d="M20.4521 9.93753C19.9418 9.58714 19.6828 8.97015 19.7971 8.35315C20.0789 6.93636 19.1648 5.55765 17.7404 5.26819C17.7252 5.26819 17.7023 5.26058 17.6871 5.26058C17.1006 5.16155 16.6131 4.74261 16.4303 4.17132C16.3846 4.03421 16.3312 3.8971 16.2703 3.76761C15.6229 2.47269 14.0537 1.9471 12.7588 2.59456C11.5324 3.20394 10.984 4.65882 11.502 5.92327C11.7686 6.57835 11.898 7.17249 11.4486 7.80472C10.6107 8.98538 10.8926 10.6231 12.0732 11.4534C12.0809 11.461 12.0961 11.4686 12.1037 11.4762C12.6141 11.8342 12.8578 12.4588 12.7359 13.0682C12.4617 14.485 13.391 15.8637 14.8154 16.1379C16.0951 16.3817 17.352 15.658 17.7861 14.4317C19.0811 15.0791 20.6502 14.5459 21.2977 13.2586C21.8766 12.0932 21.5186 10.684 20.4521 9.93753Z" fill="#598C44"/>
<path d="M26.3936 12.0324C26.0508 11.5144 26.0432 10.8441 26.3783 10.3185C27.1781 9.11497 26.843 7.48489 25.6395 6.68509C25.6242 6.67747 25.609 6.66223 25.5938 6.65462C24.8473 6.18235 24.9006 5.51204 24.8397 4.7427C24.733 3.30306 23.4686 2.22141 22.0289 2.32806C20.6654 2.4347 19.6066 3.56966 19.6066 4.94075C19.6066 5.64915 19.5 6.24329 18.8525 6.66223C17.6338 7.43919 17.2758 9.06165 18.0604 10.2804C18.068 10.288 18.0756 10.3032 18.0832 10.3109C18.4184 10.8365 18.4184 11.5068 18.068 12.0247C17.2834 13.2359 17.6262 14.8583 18.8373 15.6505C19.9266 16.3589 21.3738 16.1609 22.227 15.1859C23.1867 16.2675 24.8397 16.3741 25.9213 15.422C26.8963 14.5689 27.0943 13.1216 26.3936 12.0324Z" fill="#5F9548"/>
<path d="M30.4687 19.3906L23.1562 16.9531L27.1857 4.87223C27.6732 3.41734 29.1586 2.29 30.7049 2.32809C31.6646 2.35094 32.5635 2.53375 33.3176 3.14312C34.5363 4.11812 35.0162 5.7482 34.5211 7.22594L30.4687 19.3906Z" fill="#FFB531"/>
<path d="M25.5938 13.2969V35.2344H7.3125V13.2969L9.14062 14.5156L10.9688 13.2969L12.7969 14.5156L14.625 13.2969L16.4531 14.5156L18.2812 13.2969L20.1094 14.5156L21.9375 13.2969L23.7656 14.5156L25.5938 13.2969Z" fill="#FFB531"/>
<path d="M25.5938 18.3469V35.2342H7.3125V31.5399C14.0232 29.2852 20.673 25.1795 25.5938 18.3469Z" fill="#FCAC1F"/>
<path d="M32.9062 13.2969V35.2344H25.5938V13.2969L27.4219 14.5156L29.25 13.2969L31.0781 14.5156L32.9062 13.2969Z" fill="#F98500"/>
<path d="M7.42676 37.6719C10.1191 37.6719 12.3018 35.4893 12.3018 32.7969C12.3018 30.1045 10.1191 27.9219 7.42676 27.9219C4.73437 27.9219 2.55176 30.1045 2.55176 32.7969C2.55176 35.4893 4.73437 37.6719 7.42676 37.6719Z" fill="#F35244"/>
<path d="M17.6719 24.875L18.2812 26.0938C17.5271 26.8479 17.2225 27.9447 17.4814 28.9883L17.6719 29.75H15.2344V28.8207C15.2344 27.1525 16.1789 25.6215 17.6719 24.875Z" fill="#5F9548"/>
<path d="M14.0994 37.6719C13.3301 37.6719 12.6445 37.1691 12.4236 36.4303L11.0525 31.8523C10.6717 30.5803 11.5096 29.1406 12.9187 29.1406C13.6043 29.1406 14.2365 29.4986 14.5869 30.0852L15.8437 32.1875V35.9275C15.8437 36.8873 15.0592 37.6719 14.0994 37.6719Z" fill="#FA9F0C"/>
<path d="M18.8068 37.6719C19.5762 37.6719 20.2617 37.1691 20.4826 36.4303L21.8537 31.8523C22.2422 30.565 21.3891 29.1406 19.9875 29.1406C19.302 29.1406 18.6697 29.4986 18.3193 30.0852L17.0625 32.1875V35.9275C17.0625 36.8873 17.8471 37.6719 18.8068 37.6719Z" fill="#FA9F0C"/>
<path d="M16.4531 29.1406C17.4662 29.1406 18.2812 29.9557 18.2812 30.9688V35.8438C18.2812 36.8568 17.4662 37.6719 16.4531 37.6719C15.44 37.6719 14.625 36.8568 14.625 35.8438V30.9688C14.625 29.9557 15.44 29.1406 16.4531 29.1406Z" fill="#FFB531"/>
<path d="M33.6984 2.6708C32.5711 1.76436 31.0248 1.49014 29.5547 1.9167C28.1226 2.33564 27.0486 3.34873 26.6068 4.68174L24.1465 12.0704L23.857 11.6438L22.8363 12.3218V9.86143L24.5273 8.73408L23.8494 7.721L22.8287 8.39893V5.60342H21.6099V8.39131L20.5968 7.71338L19.9189 8.72646L21.6099 9.85381V12.3142L20.5968 11.6362L19.9189 12.6493L20.8558 13.2739L20.1017 13.7767L18.6088 12.7864C18.5402 12.7407 18.4716 12.7103 18.3955 12.695C18.4412 12.5808 18.5021 12.4665 18.5707 12.3599C19.0429 11.6362 19.0429 10.7069 18.5783 9.97568C18.1517 9.32822 18.167 8.36084 18.6088 7.71338C18.7992 7.43916 19.5761 6.8831 19.7818 6.60889C20.1855 6.07568 20.2312 5.46631 20.2769 4.93311C20.3074 4.51416 20.3379 4.14854 20.5207 3.8667C21.1072 2.92979 22.3488 2.64795 23.2857 3.23447C23.4838 3.35635 23.6513 3.51631 23.7961 3.6915C24.1236 4.10283 24.1541 4.51416 24.1922 5.07021C24.2074 5.26064 24.2226 5.46631 24.2455 5.67959L25.4566 5.52725C25.4338 5.34443 25.4185 5.16162 25.4109 4.98643C25.3652 4.32373 25.3119 3.6458 24.7558 2.9374C23.6513 1.53584 21.6252 1.29971 20.2236 2.39658C19.9341 2.6251 19.6828 2.89932 19.4847 3.21162C19.1496 3.74482 19.1039 4.32373 19.0582 4.82646C19.0506 4.94072 19.0429 5.04736 19.0277 5.154C18.6545 4.90264 18.2279 4.72744 17.7785 4.64365C17.4129 4.58271 17.1082 4.32373 16.9939 3.97334C16.7273 3.14307 16.1484 2.45752 15.3715 2.06143C14.6097 1.65771 13.7185 1.58154 12.8959 1.84814C11.6847 2.25186 10.8011 3.38682 10.6945 4.68936C10.6564 5.18447 10.7783 5.61865 10.9002 6.00713C10.3289 5.07021 9.33102 4.47607 8.23414 4.40752L8.257 1.70342L7.03825 1.6958L7.02301 3.45537L6.29176 1.58154L5.17965 2.04619L5.9109 3.92002L4.70739 2.64033L3.82379 3.47061L5.67477 5.45107C4.6693 6.48701 4.43317 8.04092 5.10348 9.32061L6.36793 11.7581L7.44957 11.1944L6.18512 8.75693C5.6443 7.71338 6.04801 6.42607 7.09157 5.88525C8.13512 5.34443 9.42243 5.74814 9.96325 6.7917C10.0318 6.92881 10.0851 7.06592 10.1308 7.21826L10.1537 7.29443L8.18844 8.06377L8.63024 9.19873L10.4736 8.48271V8.49033C10.3593 8.92451 10.3289 9.37393 10.405 9.82334L9.07965 10.3413L9.52145 11.4763L10.8316 10.9659C11.1363 11.4763 11.6619 11.9485 11.6619 11.9485L9.96325 12.6112L10.1613 13.1063L9.14821 13.7843L7.65524 12.794C7.3734 12.6036 7.00016 12.6798 6.80973 12.9616C6.74117 13.0606 6.71071 13.1825 6.71071 13.2968V26.0936H7.92946V14.4317L8.81305 15.0183C9.01871 15.1554 9.28532 15.1554 9.49098 15.0183L10.9839 14.028L12.4769 15.0183C12.6826 15.1554 12.9492 15.1554 13.1548 15.0183L14.6478 14.028L16.1408 15.0183C16.3464 15.1554 16.6131 15.1554 16.8187 15.0183L18.3117 14.028L19.8047 15.0183C20.0103 15.1554 20.2769 15.1554 20.4826 15.0183L21.9756 14.028L23.4685 15.0183C23.6742 15.1554 23.9408 15.1554 24.1465 15.0183L25.03 14.4317V34.6249H22.5925V35.8436H32.9519C33.2871 35.8436 33.5613 35.5694 33.5613 35.2343V13.2968C33.5613 13.114 33.4775 12.9464 33.3404 12.8321L35.1457 7.42393C35.6713 5.70244 35.1076 3.80576 33.6984 2.6708ZM17.5728 10.6612C17.6261 10.745 17.6642 10.8364 17.6871 10.9354L17.2681 11.5524L16.3388 9.26728L17.1539 8.06377C16.9406 8.93975 17.0777 9.91475 17.5728 10.6612ZM13.3224 13.4415C13.4824 12.794 13.3529 12.1161 12.9797 11.5677C12.6216 11.0497 12.0504 10.6917 11.7609 10.128C11.6086 9.83096 11.5476 9.48818 11.5857 9.15303C11.6771 8.40654 12.2408 7.78193 12.3246 7.03545C12.3855 6.48701 12.1646 5.95381 12.0504 5.41299C11.7838 4.21709 12.5379 3.00596 13.8252 2.94502C14.4498 2.92217 15.0439 3.18877 15.44 3.66865C15.7904 4.10283 15.9504 4.67412 16.3007 5.11592C16.5597 5.44346 16.9101 5.67959 17.3062 5.79385C17.6947 5.9081 18.1517 5.92334 18.4107 6.23564C17.9613 6.55557 17.5957 6.97451 17.3443 7.46963L16.4759 6.89072L15.7904 7.88096L14.7392 5.31396L13.6195 5.771L14.6631 8.3456L13.4748 8.11709L13.231 9.30537L15.1886 9.74717L16.1408 11.9866L14.9525 11.7581L14.8078 12.4741C14.8002 12.4817 13.6347 13.213 13.3224 13.4415ZM15.44 13.1063L16.6968 13.3653L16.7806 13.571L16.4531 13.7843L15.44 13.1063ZM23.3009 13.472L23.7732 13.1521L23.598 13.67L23.3009 13.472ZM26.2031 14.4317L27.0867 15.0183C27.2924 15.1554 27.559 15.1554 27.7646 15.0183L28.6482 14.4317V31.319L26.2107 33.7565V14.4317H26.2031ZM32.2968 14.4317V33.7565L29.8593 31.319V14.4317L30.7429 15.0183C30.9486 15.1554 31.2152 15.1554 31.4209 15.0183L32.2968 14.4317ZM29.25 32.4388L31.4361 34.6249H27.0638L29.25 32.4388ZM33.9422 7.03545L31.8703 13.2511L31.0781 13.7767L29.5851 12.7864C29.3795 12.6493 29.1129 12.6493 28.9072 12.7864L27.4142 13.7767C27.4142 13.7767 25.8908 12.7636 25.8756 12.756C25.6775 12.6493 25.4338 12.6645 25.2509 12.7864L25.1595 12.8474L27.757 5.0626C28.0769 4.11045 28.8539 3.39443 29.8974 3.08213C30.9791 2.76221 32.114 2.96025 32.9367 3.61533C33.9498 4.43799 34.3535 5.80147 33.9422 7.03545Z" fill="black"/>
<path d="M28.5291 6.61157L32.1867 6.0032L32.3866 7.20489L28.729 7.81326L28.5291 6.61157Z" fill="black"/>
<path d="M27.3093 10.2659L30.967 9.6575L31.1668 10.8592L27.5092 11.4676L27.3093 10.2659Z" fill="black"/>
<path d="M19.9951 28.5312C19.3248 28.5236 18.6773 28.7902 18.2051 29.2701C18.1974 29.2625 18.1898 29.2548 18.1822 29.2396L18.0832 28.8359C18.0832 28.8283 18.0832 28.8283 18.0756 28.8207C17.8394 27.9904 18.3117 26.9392 18.723 26.5279C18.9058 26.3451 18.9516 26.0556 18.8373 25.8271L18.2279 24.6084C18.0756 24.3037 17.7099 24.1818 17.4129 24.3341C15.7066 25.1796 14.6326 26.924 14.6402 28.8207V29.1482C14.4955 29.0416 14.3355 28.9425 14.1756 28.8511C12.9949 28.2189 11.4639 28.615 10.7631 29.7271C10.3594 30.3746 10.2527 31.2505 10.4812 32.0199L11.2734 34.663C10.2223 36.773 7.66288 37.6337 5.55292 36.5902C3.46581 35.5543 2.59745 33.033 3.60292 30.9306C3.61815 30.9002 3.63339 30.8697 3.64862 30.8392L3.67147 32.9111L4.89022 32.8959L4.85214 30.3593L7.28202 30.4736L7.34296 29.2548L5.22538 29.1558C5.8576 28.7673 6.58885 28.5541 7.32772 28.5312C8.21132 28.5084 9.07968 28.7597 9.81093 29.2548L10.4889 28.2418C9.11776 27.3201 7.40389 27.0687 5.82714 27.5486L6.08612 26.9392L4.96639 26.4593L4.1285 28.4093C4.06757 28.455 3.99901 28.5084 3.93807 28.5617L2.07948 26.7031L1.21874 27.5638L3.09257 29.4377C3.05448 29.491 3.01639 29.5443 2.97831 29.5976L0.982605 30.4507L1.46249 31.5705L2.16327 31.2658C1.31776 34.1755 2.99354 37.2148 5.90331 38.0603C7.82284 38.6164 9.89471 38.0832 11.3115 36.6664C11.4562 36.5216 11.5933 36.3617 11.7228 36.2017L11.8447 36.5978C12.218 37.847 13.5281 38.5478 14.7773 38.1746C14.9525 38.1212 15.1125 38.0527 15.2724 37.9613C16.0113 38.3726 16.9101 38.3726 17.649 37.9613C18.7764 38.6087 20.216 38.2127 20.8635 37.0853C20.9549 36.933 21.0234 36.7654 21.0767 36.5902L22.4478 32.0123C22.5316 31.7076 22.5697 31.3877 22.5545 31.0677C22.5469 29.6738 21.4043 28.5312 19.9951 28.5312ZM17.4205 25.7357L17.5576 26.0099C17.0777 26.6726 16.7349 27.64 16.7959 28.5541C16.6207 28.5236 16.1408 28.5007 15.8514 28.6074C15.9123 27.4572 16.4912 26.406 17.4205 25.7357ZM13.0101 36.255L11.6391 31.6771C11.5096 31.2429 11.5705 30.725 11.7838 30.3822C12.1342 29.8185 12.9797 29.6052 13.5891 29.9328C13.8785 30.0851 13.9928 30.1918 14.107 30.3365C14.0537 30.5421 14.0232 30.7554 14.0232 30.9687V35.8437C14.0232 36.2627 14.1299 36.674 14.3355 37.0396C13.749 37.1615 13.1777 36.8187 13.0101 36.255ZM15.2344 35.8437V30.9687C15.2344 30.2984 15.7828 29.75 16.4531 29.75C17.1234 29.75 17.6719 30.2984 17.6719 30.9687V35.8437C17.6719 36.514 17.1234 37.0625 16.4531 37.0625C15.7828 37.0625 15.2344 36.514 15.2344 35.8437ZM21.2748 31.6771L19.9037 36.255C19.7361 36.8187 19.1572 37.1615 18.5783 37.0396C18.784 36.674 18.8906 36.2627 18.8906 35.8437V30.9687C18.8906 30.7783 18.8678 30.5955 18.8221 30.4127C18.982 30.1689 19.3476 29.75 19.9875 29.75C20.7264 29.75 21.3205 30.3517 21.3205 31.083C21.3357 31.281 21.3205 31.4867 21.2748 31.6771Z" fill="black"/>
</svg>
