<svg width="107" height="17" viewBox="0 0 107 17" fill="none" xmlns="http://www.w3.org/2000/svg">
<path d="M11.9457 10.0467C11.773 10.2141 11.6937 10.4561 11.733 10.6934L12.3257 13.9734C12.3757 14.2514 12.2583 14.5327 12.0257 14.6934C11.7977 14.8601 11.4943 14.8801 11.2457 14.7467L8.29299 13.2067C8.19032 13.1521 8.07632 13.1227 7.95965 13.1194H7.77899C7.71632 13.1287 7.65499 13.1487 7.59899 13.1794L4.64565 14.7267C4.49965 14.8001 4.33432 14.8261 4.17232 14.8001C3.77765 14.7254 3.51432 14.3494 3.57899 13.9527L4.17232 10.6727C4.21165 10.4334 4.13232 10.1901 3.95965 10.0201L1.55232 7.68675C1.35099 7.49141 1.28099 7.19808 1.37299 6.93341C1.46232 6.66941 1.69032 6.47675 1.96565 6.43341L5.27899 5.95275C5.53099 5.92675 5.75232 5.77341 5.86565 5.54675L7.32565 2.55341C7.36032 2.48675 7.40499 2.42541 7.45899 2.37341L7.51899 2.32675C7.55032 2.29208 7.58632 2.26341 7.62632 2.24008L7.69899 2.21341L7.81232 2.16675H8.09299C8.34365 2.19275 8.56432 2.34275 8.67965 2.56675L10.159 5.54675C10.2657 5.76475 10.473 5.91608 10.7123 5.95275L14.0257 6.43341C14.3057 6.47341 14.5397 6.66675 14.6323 6.93341C14.7197 7.20075 14.6443 7.49408 14.439 7.68675L11.9457 10.0467Z" fill="#FDC040"/>
<path d="M29.9457 10.0467C29.773 10.2141 29.6937 10.4561 29.733 10.6934L30.3257 13.9734C30.3757 14.2514 30.2583 14.5327 30.0257 14.6934C29.7977 14.8601 29.4943 14.8801 29.2457 14.7467L26.293 13.2067C26.1903 13.1521 26.0763 13.1227 25.9597 13.1194H25.779C25.7163 13.1287 25.655 13.1487 25.599 13.1794L22.6457 14.7267C22.4997 14.8001 22.3343 14.8261 22.1723 14.8001C21.7777 14.7254 21.5143 14.3494 21.579 13.9527L22.1723 10.6727C22.2117 10.4334 22.1323 10.1901 21.9597 10.0201L19.5523 7.68675C19.351 7.49141 19.281 7.19808 19.373 6.93341C19.4623 6.66941 19.6903 6.47675 19.9657 6.43341L23.279 5.95275C23.531 5.92675 23.7523 5.77341 23.8657 5.54675L25.3257 2.55341C25.3603 2.48675 25.405 2.42541 25.459 2.37341L25.519 2.32675C25.5503 2.29208 25.5863 2.26341 25.6263 2.24008L25.699 2.21341L25.8123 2.16675H26.093C26.3437 2.19275 26.5643 2.34275 26.6797 2.56675L28.159 5.54675C28.2657 5.76475 28.473 5.91608 28.7123 5.95275L32.0257 6.43341C32.3057 6.47341 32.5397 6.66675 32.6323 6.93341C32.7197 7.20075 32.6443 7.49408 32.439 7.68675L29.9457 10.0467Z" fill="#FDC040"/>
<path d="M47.9457 10.0467C47.773 10.2141 47.6937 10.4561 47.733 10.6934L48.3257 13.9734C48.3757 14.2514 48.2583 14.5327 48.0257 14.6934C47.7977 14.8601 47.4943 14.8801 47.2457 14.7467L44.293 13.2067C44.1903 13.1521 44.0763 13.1227 43.9597 13.1194H43.779C43.7163 13.1287 43.655 13.1487 43.599 13.1794L40.6457 14.7267C40.4997 14.8001 40.3343 14.8261 40.1723 14.8001C39.7777 14.7254 39.5143 14.3494 39.579 13.9527L40.1723 10.6727C40.2117 10.4334 40.1323 10.1901 39.9597 10.0201L37.5523 7.68675C37.351 7.49141 37.281 7.19808 37.373 6.93341C37.4623 6.66941 37.6903 6.47675 37.9657 6.43341L41.279 5.95275C41.531 5.92675 41.7523 5.77341 41.8657 5.54675L43.3257 2.55341C43.3603 2.48675 43.405 2.42541 43.459 2.37341L43.519 2.32675C43.5503 2.29208 43.5863 2.26341 43.6263 2.24008L43.699 2.21341L43.8123 2.16675H44.093C44.3437 2.19275 44.5643 2.34275 44.6797 2.56675L46.159 5.54675C46.2657 5.76475 46.473 5.91608 46.7123 5.95275L50.0257 6.43341C50.3057 6.47341 50.5397 6.66675 50.6323 6.93341C50.7197 7.20075 50.6443 7.49408 50.439 7.68675L47.9457 10.0467Z" fill="#FDC040"/>
<path d="M65.9457 10.0467C65.773 10.2141 65.6937 10.4561 65.733 10.6934L66.3257 13.9734C66.3757 14.2514 66.2583 14.5327 66.0257 14.6934C65.7977 14.8601 65.4943 14.8801 65.2457 14.7467L62.293 13.2067C62.1903 13.1521 62.0763 13.1227 61.9597 13.1194H61.779C61.7163 13.1287 61.655 13.1487 61.599 13.1794L58.6457 14.7267C58.4997 14.8001 58.3343 14.8261 58.1723 14.8001C57.7777 14.7254 57.5143 14.3494 57.579 13.9527L58.1723 10.6727C58.2117 10.4334 58.1323 10.1901 57.9597 10.0201L55.5523 7.68675C55.351 7.49141 55.281 7.19808 55.373 6.93341C55.4623 6.66941 55.6903 6.47675 55.9657 6.43341L59.279 5.95275C59.531 5.92675 59.7523 5.77341 59.8657 5.54675L61.3257 2.55341C61.3603 2.48675 61.405 2.42541 61.459 2.37341L61.519 2.32675C61.5503 2.29208 61.5863 2.26341 61.6263 2.24008L61.699 2.21341L61.8123 2.16675H62.093C62.3437 2.19275 62.5643 2.34275 62.6797 2.56675L64.159 5.54675C64.2657 5.76475 64.473 5.91608 64.7123 5.95275L68.0257 6.43341C68.3057 6.47341 68.5397 6.66675 68.6323 6.93341C68.7197 7.20075 68.6443 7.49408 68.439 7.68675L65.9457 10.0467Z" fill="#FDC040"/>
<path d="M83.9457 10.0467C83.773 10.2141 83.6937 10.4561 83.733 10.6934L84.3257 13.9734C84.3757 14.2514 84.2583 14.5327 84.0257 14.6934C83.7977 14.8601 83.4943 14.8801 83.2457 14.7467L80.293 13.2067C80.1903 13.1521 80.0763 13.1227 79.9597 13.1194H79.779C79.7163 13.1287 79.655 13.1487 79.599 13.1794L76.6457 14.7267C76.4997 14.8001 76.3343 14.8261 76.1723 14.8001C75.7777 14.7254 75.5143 14.3494 75.579 13.9527L76.1723 10.6727C76.2117 10.4334 76.1323 10.1901 75.9597 10.0201L73.5523 7.68675C73.351 7.49141 73.281 7.19808 73.373 6.93341C73.4623 6.66941 73.6903 6.47675 73.9657 6.43341L77.279 5.95275C77.531 5.92675 77.7523 5.77341 77.8657 5.54675L79.3257 2.55341C79.3603 2.48675 79.405 2.42541 79.459 2.37341L79.519 2.32675C79.5503 2.29208 79.5863 2.26341 79.6263 2.24008L79.699 2.21341L79.8123 2.16675H80.093C80.3437 2.19275 80.5643 2.34275 80.6797 2.56675L82.159 5.54675C82.2657 5.76475 82.473 5.91608 82.7123 5.95275L86.0257 6.43341C86.3057 6.47341 86.5397 6.66675 86.6323 6.93341C86.7197 7.20075 86.6443 7.49408 86.439 7.68675L83.9457 10.0467Z" fill="#D5D5D5"/>
<path d="M95.432 14.568C95.3587 14.568 95.289 14.5497 95.223 14.513C94.6217 14.1757 94.1193 13.754 93.716 13.248C93.3127 12.7493 93.0083 12.192 92.803 11.576C92.5977 10.96 92.495 10.322 92.495 9.662C92.495 9.002 92.6013 8.37133 92.814 7.77C93.0267 7.16867 93.3347 6.615 93.738 6.109C94.1487 5.603 94.6437 5.17033 95.223 4.811C95.289 4.77433 95.3587 4.756 95.432 4.756C95.5493 4.756 95.641 4.8 95.707 4.888C95.773 4.96867 95.806 5.053 95.806 5.141C95.806 5.26567 95.7473 5.372 95.63 5.46C95.146 5.768 94.7353 6.14567 94.398 6.593C94.068 7.04033 93.815 7.528 93.639 8.056C93.4703 8.57667 93.386 9.112 93.386 9.662C93.386 10.212 93.4667 10.7547 93.628 11.29C93.7967 11.8253 94.046 12.313 94.376 12.753C94.7133 13.2003 95.1313 13.5743 95.63 13.875C95.74 13.941 95.795 14.0437 95.795 14.183C95.795 14.2783 95.762 14.3663 95.696 14.447C95.63 14.5277 95.542 14.568 95.432 14.568ZM100.175 12.5C100.05 12.5 99.9438 12.456 99.8558 12.368C99.7751 12.28 99.7348 12.1737 99.7348 12.049V6.032L99.9108 6.098L97.2818 9.53L97.2378 9.398H101.352C101.469 9.398 101.568 9.43833 101.649 9.519C101.729 9.59967 101.77 9.69867 101.77 9.816C101.77 9.926 101.729 10.0213 101.649 10.102C101.568 10.1753 101.469 10.212 101.352 10.212H96.6328C96.5228 10.212 96.4201 10.168 96.3248 10.08C96.2368 9.992 96.1928 9.88933 96.1928 9.772C96.1928 9.662 96.2295 9.56667 96.3028 9.486L99.8118 4.976C99.8631 4.91 99.9218 4.866 99.9878 4.844C100.054 4.81467 100.12 4.8 100.186 4.8C100.31 4.8 100.413 4.844 100.494 4.932C100.574 5.01267 100.615 5.11533 100.615 5.24V12.049C100.615 12.1737 100.571 12.28 100.483 12.368C100.402 12.456 100.299 12.5 100.175 12.5ZM102.692 14.568C102.575 14.568 102.483 14.524 102.417 14.436C102.351 14.348 102.318 14.26 102.318 14.172C102.318 14.0473 102.373 13.9447 102.483 13.864C102.975 13.5487 103.385 13.1673 103.715 12.72C104.053 12.28 104.306 11.796 104.474 11.268C104.65 10.74 104.738 10.201 104.738 9.651C104.738 9.101 104.654 8.562 104.485 8.034C104.324 7.49867 104.075 7.00733 103.737 6.56C103.407 6.11267 102.989 5.74233 102.483 5.449C102.373 5.37567 102.318 5.26933 102.318 5.13C102.318 5.03467 102.351 4.94667 102.417 4.866C102.491 4.78533 102.582 4.745 102.692 4.745C102.766 4.745 102.835 4.767 102.901 4.811C103.503 5.141 104.001 5.559 104.397 6.065C104.801 6.571 105.105 7.132 105.31 7.748C105.516 8.35667 105.618 8.991 105.618 9.651C105.618 10.311 105.512 10.9453 105.299 11.554C105.094 12.1553 104.786 12.709 104.375 13.215C103.972 13.721 103.477 14.15 102.89 14.502C102.832 14.546 102.766 14.568 102.692 14.568Z" fill="#ADADAD"/>
</svg>
