<svg version="1.1" xmlns="http://www.w3.org/2000/svg" xmlns:xlink="http://www.w3.org/1999/xlink" width="22" height="22" viewBox="0,0,256,256"><g fill="#ffffff" fill-rule="nonzero" stroke="none" stroke-width="1" stroke-linecap="butt" stroke-linejoin="miter" stroke-miterlimit="10" stroke-dasharray="" stroke-dashoffset="0" font-family="none" font-weight="none" font-size="none" text-anchor="none" style="mix-blend-mode: normal"><g transform="translate(5.0869,5.16561) scale(11.63636,11.63636)"><path d="M20.904,19.7081l-4.108,-4.108c0.7107,-0.832 1.2653,-1.7724 1.664,-2.821c0.3987,-1.0487 0.598,-2.1364 0.598,-3.26304c0,-1.716 -0.4333,-3.31067 -1.3,-4.784c-0.832,-1.43867 -1.9673,-2.58266 -3.406,-3.432c-1.4733,-0.86666 -3.0767,-1.3 -4.81,-1.3c-1.73333,0 -3.33667,0.43333 -4.81,1.3c-1.43867,0.832 -2.58267,1.95867 -3.432,3.38c-0.86667,1.49067 -1.3,3.09833 -1.3,4.823c0,1.72464 0.43333,3.32364 1.3,4.79704c0.832,1.4386 1.95867,2.5826 3.38,3.432c1.49067,0.884 3.10267,1.326 4.836,1.326c1.1267,0 2.2143,-0.1994 3.263,-0.598c1.0487,-0.3987 1.989,-0.9534 2.821,-1.664l4.108,4.108c0.052,0.052 0.13,0.0996 0.234,0.143c0.104,0.0433 0.208,0.065 0.312,0.065c0.104,0 0.208,-0.0217 0.312,-0.065c0.104,-0.0434 0.182,-0.091 0.234,-0.143c0.208,-0.208 0.3163,-0.416 0.325,-0.624c0.0087,-0.208 -0.065,-0.3987 -0.221,-0.572zM1.716,9.41206c0,-1.42133 0.35533,-2.73867 1.066,-3.952c0.69333,-1.16133 1.62067,-2.08866 2.782,-2.782c1.21333,-0.71066 2.53067,-1.066 3.952,-1.066c1.4213,0 2.7387,0.364 3.952,1.092c1.1787,0.69333 2.1147,1.638 2.808,2.834c0.6933,1.196 1.04,2.496 1.04,3.9c0,1.40404 -0.364,2.71264 -1.092,3.92604c-0.6933,1.1786 -1.638,2.1146 -2.834,2.808c-1.196,0.6933 -2.4873,1.04 -3.874,1.04c-1.404,0.0346 -2.72133,-0.3034 -3.952,-1.014c-1.16133,-0.676 -2.093,-1.6207 -2.795,-2.834c-0.702,-1.2134 -1.053,-2.5307 -1.053,-3.95204z"></path></g></g></svg>