<svg version="1.1" xmlns="http://www.w3.org/2000/svg" xmlns:xlink="http://www.w3.org/1999/xlink" width="15" height="15" viewBox="0,0,256,256"><g fill="#ffffff" fill-rule="nonzero" stroke="none" stroke-width="1" stroke-linecap="butt" stroke-linejoin="miter" stroke-miterlimit="10" stroke-dasharray="" stroke-dashoffset="0" font-family="none" font-weight="none" font-size="none" text-anchor="none" style="mix-blend-mode: normal"><g transform="translate(2.6624,2.50747) scale(17.06667,17.06667)"><path d="M5.094,0.00006h-3.744c-0.384,0 -0.705,0.12 -0.963,0.36c-0.258,0.24 -0.387,0.546 -0.387,0.91801v3.74399c0,0.372 0.132,0.69001 0.396,0.95401c0.264,0.264 0.582,0.396 0.954,0.396h3.744c0.384,0 0.705,-0.132 0.963,-0.396c0.258,-0.264 0.387,-0.58201 0.387,-0.95401v-3.74399c0,-0.372 -0.129,-0.678 -0.387,-0.918c-0.258,-0.24 -0.579,-0.36 -0.963,-0.36zM5.238,5.02205c0,0.036 -0.015,0.069 -0.045,0.099c-0.03,0.03 -0.063,0.045 -0.099,0.045h-3.744c-0.036,0.036 -0.072,0.033 -0.108,-0.009c-0.036,-0.042 -0.054,-0.087 -0.054,-0.135v-3.74399c0,-0.048 0.018,-0.087 0.054,-0.117c0.036,-0.03 0.072,-0.045 0.108,-0.045h3.744c0.036,0 0.069,0.015 0.099,0.045c0.03,0.03 0.045,0.069 0.045,0.117zM13.338,0.00006h-3.744c-0.372,0 -0.69,0.129 -0.954,0.387c-0.264,0.258 -0.396,0.579 -0.396,0.96301v3.744c0,0.372 0.132,0.68999 0.396,0.95399c0.264,0.264 0.582,0.396 0.954,0.396h3.744c0.384,0 0.705,-0.132 0.963,-0.396c0.258,-0.264 0.387,-0.58199 0.387,-0.95399v-3.816c0,-0.372 -0.129,-0.678 -0.387,-0.918c-0.258,-0.24 -0.579,-0.36 -0.963,-0.36zM13.5,5.02205c0,0.036 -0.015,0.069 -0.045,0.099c-0.03,0.03 -0.069,0.045 -0.117,0.045h-3.744c-0.036,0 -0.069,-0.015 -0.099,-0.045c-0.03,-0.03 -0.045,-0.063 -0.045,-0.099v-3.74399c0,-0.048 0.015,-0.087 0.045,-0.117c0.03,-0.03 0.063,-0.045 0.099,-0.045h3.744c0.048,0 0.087,0.015 0.117,0.045c0.03,0.03 0.045,0.069 0.045,0.117zM13.338,8.24405h-3.744c-0.372,0 -0.69,0.129 -0.954,0.387c-0.264,0.258 -0.396,0.579 -0.396,0.963v3.74405c0,0.384 0.132,0.708 0.396,0.972c0.264,0.264 0.582,0.396 0.954,0.396h3.744c0.372,0 0.69,-0.132 0.954,-0.396c0.264,-0.264 0.396,-0.588 0.396,-0.972v-3.74405c0,-0.408 -0.129,-0.735 -0.387,-0.981c-0.258,-0.246 -0.579,-0.369 -0.963,-0.369zM13.5,13.2661c0,0.036 -0.015,0.072 -0.045,0.108c-0.03,0.036 -0.069,0.054 -0.117,0.054h-3.744c-0.036,0 -0.069,-0.018 -0.099,-0.054c-0.03,-0.036 -0.045,-0.072 -0.045,-0.108v-3.74405c0,-0.036 0.015,-0.069 0.045,-0.099c0.03,-0.03 0.063,-0.04499 0.099,-0.04499h3.744c0.048,0 0.087,0.01499 0.117,0.04499c0.03,0.03 0.045,0.063 0.045,0.099zM5.094,8.24405h-3.744c-0.372,0 -0.69,0.129 -0.954,0.387c-0.264,0.258 -0.396,0.579 -0.396,0.963v3.74405c0,0.384 0.132,0.708 0.396,0.972c0.264,0.264 0.582,0.396 0.954,0.396h3.744c0.372,0 0.69,-0.132 0.954,-0.396c0.264,-0.264 0.396,-0.588 0.396,-0.972v-3.74405c0,-0.408 -0.129,-0.735 -0.387,-0.981c-0.258,-0.246 -0.579,-0.369 -0.963,-0.369zM5.238,13.2661c0,0.036 -0.015,0.072 -0.045,0.108c-0.03,0.036 -0.063,0.054 -0.099,0.054h-3.744c-0.036,0 -0.072,-0.018 -0.108,-0.054c-0.036,-0.036 -0.054,-0.072 -0.054,-0.108v-3.74405c0,-0.036 0.018,-0.069 0.054,-0.099c0.036,-0.03 0.072,-0.04499 0.108,-0.04499h3.744c0.036,0 0.069,0.01499 0.099,0.04499c0.03,0.03 0.045,0.063 0.045,0.099z"></path></g></g></svg>